<?xml version="1.0" encoding="utf-8"?>
<!-- Generator: Adobe Illustrator 12.0.0, SVG Export Plug-In . SVG Version: 6.00 Build 51448)  -->
<!DOCTYPE svg PUBLIC "-//W3C//DTD SVG 1.1//EN" "http://www.w3.org/Graphics/SVG/1.1/DTD/svg11.dtd" [
	<!ENTITY ns_svg "http://www.w3.org/2000/svg">
	<!ENTITY ns_xlink "http://www.w3.org/1999/xlink">
]>
<svg  version="1.1" id="Layer_1" xmlns="&ns_svg;" xmlns:xlink="&ns_xlink;" width="398.732" height="386.404"
	 viewBox="-0.063 0.025 398.732 386.404" overflow="visible" enable-background="new -0.063 0.025 398.732 386.404"
	 xml:space="preserve">
<linearGradient id="XMLID_3_" gradientUnits="userSpaceOnUse" x1="223.2676" y1="412.5276" x2="223.2676" y2="308.5276" gradientTransform="matrix(1 0 0 -1 -8.3623 410.2192)">
	<stop  offset="0" style="stop-color:#00FF01"/>
	<stop  offset="1" style="stop-color:#056E05"/>
</linearGradient>
<path fill="url(#XMLID_3_)" d="M139.159,86.693c-4.144,2.438-23.678,11.263-35.5,11.333c8.116-4.383,26.029-13.495,29-18.667
	c4.406-0.809,9.489,1.349,10.333,0.667C119.398,69.437,86.555,29.005,86.029,26.33c-0.528-3.498,3.838-2.181,26.13-18.973
	C109.367,10.65,93.451,22.9,89.992,25.191c-0.042,1.917,40.625,41.25,87.167,56.167c2.458-19.167-39.292-36.917-17.167-81.333
	c-7.125,37.792,20.375,48.792,30.875,57.667c6.5-21.25,20.203-36.354,22.125-38c6.451-4.181,13.492,0.646,14.333,3.167
	c-7.583,11.917-17.371,37.314-11.037,56.231c11.661-19.665,42.954-52.648,63.871-56.898c-26.792,8.5-37.167,35.5-41,54
	c6-2.167,11.989-3.935,12.534-12.625c4.731,5.232,0.955,14-0.313,15.625c38.389-9.138,83.764-14.42,92.442-51.167
	c-11.666,48.204-35.833,30.542-96.333,69.167c-26.166,9.667-101.265,1.521-104.368-0.457
	C139.32,94.312,141.327,88.794,139.159,86.693z"/>
<linearGradient id="XMLID_4_" gradientUnits="userSpaceOnUse" x1="11.3545" y1="185.5413" x2="408.3545" y2="185.5413" gradientTransform="matrix(1 0 0 -1 -8.3623 410.2192)">
	<stop  offset="0" style="stop-color:#CF0C15"/>
	<stop  offset="0.5" style="stop-color:#F40B16"/>
	<stop  offset="1" style="stop-color:#CF0C15"/>
</linearGradient>
<path fill="url(#XMLID_4_)" d="M306.053,69.339c-14.332,5.396-33.271,11.707-58.562,27.854
	c-26.166,9.667-101.265,1.521-104.368-0.457c-3.803-2.424-1.796-7.94-3.964-10.043c-4.144,2.438-23.678,11.263-35.5,11.333
	c8.116-4.383,26.029-13.495,29-18.667c4.406-0.809,9.489,1.349,10.333,0.667c-5.206-2.336-10.861-6.127-16.521-10.643
	C-58.755,92.315-45.136,386.429,197.207,386.429C422.115,386.429,459.177,114.792,306.053,69.339z M251.693,63.568
	c4.731,5.232,0.955,14-0.313,15.625c15.729-3.744,32.625-6.844,47.695-11.722c-16.732-4.068-35.568-5.552-56.527-3.85
	c-1.48,4.398-2.583,8.675-3.391,12.571C245.159,74.026,251.148,72.258,251.693,63.568z M225.736,65.612
	c-3.75,0.578-7.565,1.257-11.438,2.029c0.159,3.961,0.776,7.825,1.99,11.45C218.689,75.042,221.934,70.424,225.736,65.612z
	 M173.901,69.288c-9.511-1.023-18.643-1.438-27.391-1.289c9.629,5.238,19.984,9.94,30.649,13.358
	C177.672,77.359,176.256,73.42,173.901,69.288z"/>
</svg>
